<svg width="42" height="32" viewBox="0 0 42 32" fill="none" xmlns="http://www.w3.org/2000/svg">
<path d="M36.6741 29.4843H5.25245C3.6406 29.4843 2.32922 28.2097 2.32922 26.638V5.11438C2.32922 3.54263 3.6406 2.26801 5.25245 2.26801H36.6741C38.2883 2.26801 39.5974 3.54263 39.5974 5.11438V26.638C39.5974 28.2097 38.2883 29.4843 36.6741 29.4843Z" fill="#C1C7D0"/>
<path fill-rule="evenodd" clip-rule="evenodd" d="M5.25248 31.7524H36.6741C39.5694 31.7524 41.9266 29.4571 41.9266 26.638V5.1144C41.9266 2.29525 39.5694 0 36.6741 0H5.25248C2.3572 0 0 2.29525 0 5.1144V26.638C0 29.4571 2.3572 31.7524 5.25248 31.7524ZM4.65851 5.11443C4.65851 4.79464 4.92172 4.53608 5.25248 4.53608H36.6741C37.0025 4.53608 37.2681 4.79464 37.2681 5.11443V26.638C37.2681 26.9578 37.0025 27.2163 36.6741 27.2163H5.25248C4.92172 27.2163 4.65851 26.9578 4.65851 26.638V5.11443Z" fill="#F4F5F7"/>
<path d="M39.5974 5.11438C39.5974 3.54263 38.2884 2.26801 36.6742 2.26801H25.6219H19.2281C17.6116 2.26801 16.3048 3.54263 16.3048 5.11438V11.3401V26.638C16.3048 28.2097 17.6116 29.4843 19.2281 29.4843H22.6986C24.3128 29.4843 25.6219 28.2097 25.6219 26.638V14.1865C25.6219 12.6147 26.9309 11.3401 28.5451 11.3401H36.6742C38.2884 11.3401 39.5974 10.0655 39.5974 8.49374V5.11438Z" fill="#C1C7D0"/>
<path fill-rule="evenodd" clip-rule="evenodd" d="M19.228 31.7524H22.6985C25.5938 31.7524 27.951 29.4571 27.951 26.638V14.1865C27.951 13.8667 28.2142 13.6082 28.545 13.6082H36.6741C39.5693 13.6082 41.9266 11.3129 41.9266 8.49377V5.1144C41.9266 2.29525 39.5693 0 36.6741 0H19.228C16.3327 0 13.9755 2.29525 13.9755 5.1144V26.638C13.9755 29.4571 16.3327 31.7524 19.228 31.7524ZM18.6339 5.11443C18.6339 4.79464 18.8972 4.53608 19.228 4.53608H36.6741C37.0025 4.53608 37.268 4.79464 37.268 5.11443V8.49379C37.268 8.81358 37.0025 9.07214 36.6741 9.07214H28.545C25.6497 9.07214 23.2925 11.3674 23.2925 14.1866V26.638C23.2925 26.9578 23.027 27.2163 22.6985 27.2163H19.228C18.8972 27.2163 18.6339 26.9578 18.6339 26.638V5.11443Z" fill="#F4F5F7"/>
<path d="M39.5974 22.6804H25.6218C24.3338 22.6804 23.2925 21.6644 23.2925 20.4124C23.2925 19.1605 24.3338 18.1444 25.6218 18.1444H39.5974C40.8854 18.1444 41.9266 19.1605 41.9266 20.4124C41.9266 21.6644 40.8854 22.6804 39.5974 22.6804Z" fill="#F4F5F7"/>
<path d="M16.3048 13.608H2.32925C1.04118 13.608 0 12.592 0 11.34C0 10.0881 1.04118 9.07199 2.32925 9.07199H16.3048C17.5928 9.07199 18.6341 10.0881 18.6341 11.34C18.6341 12.592 17.5928 13.608 16.3048 13.608Z" fill="#F4F5F7"/>
<path d="M16.3048 22.6804H2.32925C1.04118 22.6804 0 21.6644 0 20.4124C0 19.1605 1.04118 18.1444 2.32925 18.1444H16.3048C17.5928 18.1444 18.6341 19.1605 18.6341 20.4124C18.6341 21.6644 17.5928 22.6804 16.3048 22.6804Z" fill="#F4F5F7"/>
</svg>
