<svg width="22" height="22" viewBox="0 0 22 22" fill="none" xmlns="http://www.w3.org/2000/svg">
<path fill-rule="evenodd" clip-rule="evenodd" d="M2 11C2 15.963 6.038 20 11 20C15.963 20 20 15.963 20 11C20 6.038 15.963 2 11 2C6.038 2 2 6.038 2 11ZM0 11C0 4.935 4.935 0 11 0C17.065 0 22 4.935 22 11C22 17.065 17.065 22 11 22C4.935 22 0 17.065 0 11ZM12 10H15C15.553 10 16 10.448 16 11C16 11.552 15.553 12 15 12H12V15C12 15.553 11.552 16 11 16C10.448 16 10 15.553 10 15V12H7C6.448 12 6 11.552 6 11C6 10.448 6.448 10 7 10H10V7C10 6.448 10.448 6 11 6C11.552 6 12 6.448 12 7V10Z" fill="#42526E"/>
</svg>
