<svg width="18" height="18" viewBox="0 0 18 18" fill="none" xmlns="http://www.w3.org/2000/svg">
<path fill-rule="evenodd" clip-rule="evenodd" d="M17.9229 6.3819C18.0249 6.1379 18.0249 5.8619 17.9229 5.6179C17.8719 5.4949 17.7989 5.3849 17.7059 5.2929L12.7069 0.292897C12.3169 -0.0971033 11.6839 -0.0971033 11.2929 0.292897C10.9019 0.683897 10.9019 1.3169 11.2929 1.7069L14.5859 4.9999H4.9999C2.2429 4.9999 -9.91821e-05 7.2429 -9.91821e-05 9.9999V16.9999C-9.91821e-05 17.5529 0.447901 17.9999 0.999901 17.9999C1.5519 17.9999 1.9999 17.5529 1.9999 16.9999V9.9999C1.9999 8.3459 3.3459 6.9999 4.9999 6.9999H14.5859L11.2929 10.2929C10.9019 10.6839 10.9019 11.3169 11.2929 11.7069C11.4879 11.9029 11.7439 11.9999 11.9999 11.9999C12.2559 11.9999 12.5119 11.9029 12.7069 11.7069L17.7059 6.7079C17.7989 6.6149 17.8719 6.5049 17.9229 6.3819Z" fill="#42526E"/>
</svg>
