<svg width="24" height="25" viewBox="0 0 24 25" fill="none" xmlns="http://www.w3.org/2000/svg">
<path fill-rule="evenodd" clip-rule="evenodd" d="M21 11.4135C21.5523 11.4135 22 10.9657 22 10.4135V6.41345C22 5.86117 21.5523 5.41345 21 5.41345H3C2.44772 5.41345 2 5.86117 2 6.41345V10.4135C2 10.9657 2.44772 11.4135 3 11.4135C3.55228 11.4135 4 11.8612 4 12.4135C4 12.9657 3.55228 13.4135 3 13.4135C2.44772 13.4135 2 13.8612 2 14.4135V18.4135C2 18.9657 2.44772 19.4135 3 19.4135H21C21.5523 19.4135 22 18.9657 22 18.4135V14.4135C22 13.8612 21.5523 13.4135 21 13.4135C20.4477 13.4135 20 12.9657 20 12.4135C20 11.8612 20.4477 11.4135 21 11.4135ZM20 9.59338C18.8135 10.024 18.0235 11.1512 18.0235 12.4134C18.0235 13.6756 18.8135 14.8028 20 15.2334V17.4134H10C10 16.8611 9.55228 16.4134 9 16.4134C8.44772 16.4134 8 16.8611 8 17.4134H4V15.2334C5.18645 14.8028 5.97648 13.6756 5.97648 12.4134C5.97648 11.1512 5.18645 10.024 4 9.59338V7.41338H8C8 7.96566 8.44772 8.41338 9 8.41338C9.55228 8.41338 10 7.96566 10 7.41338H20V9.59338Z" fill="#5243AA"/>
<path fill-rule="evenodd" clip-rule="evenodd" d="M9 10.4133C8.44772 10.4133 8 10.861 8 11.4133V13.4133C8 13.9656 8.44772 14.4133 9 14.4133C9.55228 14.4133 10 13.9656 10 13.4133V11.4133C10 10.861 9.55228 10.4133 9 10.4133Z" fill="#8777D9"/>
</svg>
