<svg width="19" height="15" viewBox="0 0 19 15" fill="none" xmlns="http://www.w3.org/2000/svg">
<path fill-rule="evenodd" clip-rule="evenodd" d="M10.2937 14.358C10.1037 14.1617 10.0037 13.9164 10.0037 13.6613C10.0037 13.4062 10.1037 13.1608 10.2937 12.9646L14.5937 8.75504H1.00366C0.45366 8.75504 0.0036602 8.31348 0.0036602 7.77379C0.0036602 7.2341 0.45366 6.79254 1.00366 6.79254L14.5937 6.79254L10.2937 2.58298C9.90366 2.20029 9.90366 1.57229 10.2937 1.1896C10.6837 0.806916 11.3237 0.806916 11.7137 1.1896L17.7137 7.0771C17.8037 7.16541 17.8737 7.27335 17.9237 7.3911C17.9437 7.44016 17.9637 7.47941 17.9637 7.52848C18.0137 7.68548 18.0137 7.8621 17.9637 8.0191C17.9637 8.06816 17.9437 8.10741 17.9237 8.15648C17.8737 8.27423 17.8037 8.38216 17.7137 8.47048L11.7137 14.358C11.3237 14.7407 10.6837 14.7407 10.2937 14.358" fill="#0052CC"/>
</svg>
