<svg width="20" height="23" viewBox="0 0 20 23" fill="none" xmlns="http://www.w3.org/2000/svg">
<path fill-rule="evenodd" clip-rule="evenodd" d="M15 11.775H5H3C2.449 11.775 2 12.2156 2 12.7563V19.625C2 20.1667 2.449 20.6063 3 20.6063H17C17.552 20.6063 18 20.1667 18 19.625V12.7563C18 12.2156 17.552 11.775 17 11.775H15ZM4 9.81251V6.86876C4 3.62181 6.691 0.981262 10 0.981262C13.309 0.981262 16 3.62181 16 6.86876V9.81251H17C18.654 9.81251 20 11.1333 20 12.7563V19.625C20 21.248 18.654 22.5688 17 22.5688H3C1.346 22.5688 0 21.248 0 19.625V12.7563C0 11.1333 1.346 9.81251 3 9.81251H4ZM6 9.81251H14V6.86876C14 4.70412 12.206 2.94376 10 2.94376C7.794 2.94376 6 4.70412 6 6.86876V9.81251Z" fill="#B3BAC5"/>
</svg>
