<svg width="16" height="16" viewBox="0 0 16 16" fill="none" xmlns="http://www.w3.org/2000/svg">
<circle cx="8" cy="8" r="8" fill="#2F80ED"/>
<rect width="10" height="9.8125" transform="translate(3 3)" fill="#2F80ED"/>
<path fill-rule="evenodd" clip-rule="evenodd" d="M4.66665 7.29301C4.66665 5.82931 5.88331 4.63546 7.37498 4.63546C8.86665 4.63546 10.0833 5.82931 10.0833 7.29301C10.0833 8.02486 9.77915 8.69129 9.28748 9.16965C8.79998 9.6521 8.12081 9.95056 7.37498 9.95056C5.88331 9.95056 4.66665 8.75671 4.66665 7.29301M12.0458 11.2957L10.1583 9.44358C10.6333 8.85074 10.9166 8.10254 10.9166 7.29301C10.9166 5.37548 9.32915 3.81775 7.37498 3.81775C5.42081 3.81775 3.83331 5.37548 3.83331 7.29301C3.83331 9.21054 5.42081 10.7683 7.37498 10.7683C8.19998 10.7683 8.96248 10.4902 9.56665 10.0242L11.4541 11.8763C11.5375 11.9539 11.6416 11.9948 11.75 11.9948C11.8583 11.9948 11.9625 11.9539 12.0458 11.8763C12.2083 11.7168 12.2083 11.4551 12.0458 11.2957" fill="white"/>
</svg>
