<svg width="16" height="16" viewBox="0 0 16 16" fill="none" xmlns="http://www.w3.org/2000/svg">
<circle cx="8" cy="8" r="8" fill="#F2994A"/>
<rect width="10" height="9.8125" transform="translate(3 3)" fill="#F2994A"/>
<path fill-rule="evenodd" clip-rule="evenodd" d="M8.00002 9.13279C8.08502 9.13279 8.1696 9.15814 8.2421 9.20925L10.5 10.7915V5.04425C10.5 4.81897 10.3134 4.6354 10.0834 4.6354H5.91669C5.6871 4.6354 5.50002 4.81897 5.50002 5.04425V10.7915L7.75794 9.20925C7.83044 9.15814 7.91502 9.13279 8.00002 9.13279ZM10.9167 11.9948C10.8313 11.9948 10.7467 11.969 10.6746 11.9183L8.00002 10.0441L5.32544 11.9183C5.19877 12.0079 5.03127 12.0201 4.89252 11.9498C4.75377 11.8795 4.66669 11.7392 4.66669 11.5859V5.04425C4.66669 4.36801 5.22752 3.81769 5.91669 3.81769H10.0834C10.7725 3.81769 11.3334 4.36801 11.3334 5.04425V11.5859C11.3334 11.7392 11.2463 11.8795 11.1075 11.9498C11.0471 11.9796 10.9817 11.9948 10.9167 11.9948Z" fill="white"/>
</svg>
